<svg width="18" height="18" viewBox="0 0 18 18" fill="none" xmlns="http://www.w3.org/2000/svg"><path d="M9 7.92a1.636 1.636 0 10.002-3.271A1.636 1.636 0 009 7.919z" fill="#B960FF"/><path d="M14.67 8.947a6.26 6.26 0 00-2.645-8.17A6.279 6.279 0 003.7 2.915a6.262 6.262 0 00-.37 6.032L.2 12.562a.817.817 0 00.517 1.345l3.005.376.376 3.001a.817.817 0 001.466.39L9 13.095l3.437 4.577a.817.817 0 001.466-.389l.376-3.001 3.005-.376a.818.818 0 00.517-1.345l-3.13-3.615zm-9.2 6.127l-.204-1.625a.817.817 0 00-.71-.71l-2.118-.264 1.816-2.1c.005.007.012.01.017.017a6.289 6.289 0 003.178 1.961c.017.005.033.013.05.017l-2.03 2.704zM9 10.916a4.64 4.64 0 01-4.284-2.86A4.627 4.627 0 015.721 3.01a4.639 4.639 0 017.916 3.276 4.65 4.65 0 01-1.364 3.27A4.66 4.66 0 019 10.915zm4.445 1.823a.819.819 0 00-.711.71l-.203 1.625-2.033-2.707c.017 0 .034-.012.05-.017a6.318 6.318 0 003.192-1.975l1.822 2.1-2.117.264z" fill="url(#paint0_linear_3461_21716)"/><defs><linearGradient id="paint0_linear_3461_21716" x1="0" y1="8.438" x2="18.002" y2="8.5" gradientUnits="userSpaceOnUse"><stop stop-color="#B07CFF"/><stop offset="1" stop-color="#C241FF"/></linearGradient></defs></svg>