<svg width="17" height="18" viewBox="0 0 17 18" fill="none" xmlns="http://www.w3.org/2000/svg"><path d="M7.555 5.059V16.94c0 .281.1.55.277.749.177.198.417.31.668.31a.9.9 0 00.668-.31c.177-.199.276-.468.276-.749V5.06c0-.281-.1-.55-.276-.749A.896.896 0 008.5 4a.9.9 0 00-.668.31 1.127 1.127 0 00-.277.749z" fill="url(#paint0_linear_3461_21723)"/><path d="M13.458 4H3.542a3.552 3.552 0 00-2.503 1.035A3.527 3.527 0 000 7.529v.706a2.111 2.111 0 00.708 1.577v4.659a3.527 3.527 0 001.039 2.494A3.552 3.552 0 004.25 18h8.5a3.552 3.552 0 002.503-1.035 3.528 3.528 0 001.039-2.494V9.812A2.12 2.12 0 0017 8.235V7.53a3.527 3.527 0 00-1.039-2.494A3.552 3.552 0 0013.458 4zM1.417 7.53a2.118 2.118 0 012.125-2.118h9.916a2.13 2.13 0 011.503.62c.398.397.622.936.622 1.497v.706a.705.705 0 01-.708.706H2.125a.71.71 0 01-.708-.706V7.53zm13.458 6.94a2.118 2.118 0 01-2.125 2.118h-8.5a2.129 2.129 0 01-1.503-.62 2.114 2.114 0 01-.622-1.497v-4.118h12.75v4.118z" fill="url(#paint1_linear_3461_21723)"/><circle cx="6.5" cy="2.5" r="1.75" stroke="#49ACFF" stroke-width="1.5"/><circle cx="10.5" cy="2.5" r="1.75" stroke="#49ACFF" stroke-width="1.5"/><defs><linearGradient id="paint0_linear_3461_21723" x1="8.559" y1="4" x2="8.199" y2="17.992" gradientUnits="userSpaceOnUse"><stop stop-color="#3B93FF"/><stop offset="1" stop-color="#57C6FF"/></linearGradient><linearGradient id="paint1_linear_3461_21723" x1="0" y1="10.563" x2="17.002" y2="10.634" gradientUnits="userSpaceOnUse"><stop stop-color="#3B93FF"/><stop offset="1" stop-color="#57C6FF"/></linearGradient></defs></svg>