<svg width="21" height="22" viewBox="0 0 22 16" fill="none" xmlns="http://www.w3.org/2000/svg"><path d="M3.917 17.5L8.583 5l8.125 8.125L3.918 17.5z" fill="#A6333B"/><path d="M16.927 12.014L8.982 4.069a.703.703 0 00-1.156.25L3.041 17.05a.703.703 0 00.905.906l12.74-4.777a.704.704 0 00.241-1.165zm-5.922 1.794l-4.58-1.762.86-2.292 7.174 2.759-3.454 1.295zM8.758 5.834l4.84 4.841L7.78 8.437l.978-2.603zm-2.83 7.529l3.092 1.189-4.119 1.544 1.027-2.733z" fill="url(#paint0_linear_3_54346)"/><path d="M13.488 3.601A2.108 2.108 0 1010.505.618a2.108 2.108 0 102.983 2.983zm-1.989-1.989a.704.704 0 11.994.997.704.704 0 01-.994-.997z" fill="#FF4575"/><path d="M19.835 8.664h-.703v-.703a.703.703 0 10-1.407 0v.703h-.703a.703.703 0 100 1.406h.703v.704a.703.703 0 001.407 0v-.704h.703a.703.703 0 100-1.406z" fill="#FFA932"/><path d="M16.813 6.803a.703.703 0 000-.994.703.703 0 11.995-.995.703.703 0 00.994-.994.703.703 0 11.994-.994.703.703 0 10.995-.995 2.112 2.112 0 00-3.598 1.375 2.094 2.094 0 00-1.374.614 2.095 2.095 0 00-.618 1.492c0 .563.22 1.093.618 1.491.274.275.72.275.994 0z" fill="#3A91FF"/><path d="M16.215 1.406a.703.703 0 100-1.406.703.703 0 000 1.406z" fill="#FFA74C"/><path d="M20.294 6.89a.703.703 0 100-1.405.703.703 0 000 1.406z" fill="#FFFF4B"/><path d="M13.403 6.89a.703.703 0 100-1.405.703.703 0 000 1.406z" fill="#FFFE37"/><defs><linearGradient id="paint0_linear_3_54346" x1="2.996" y1="10.49" x2="17.143" y2="10.539" gradientUnits="userSpaceOnUse"><stop stop-color="#FA365F"/><stop offset="1" stop-color="#EB6E45"/></linearGradient></defs></svg>