<svg width="16" height="16" viewBox="0 0 16 16" fill="none" xmlns="http://www.w3.org/2000/svg"><path d="M15.094 10v5.375c0 .345-.28.625-.625.625H6.812a.625.625 0 01-.625-.625v-1.094a.626.626 0 00-.625-.625H3.094a.625.625 0 01-.625-.625v-2.107L.354 9.907A.625.625 0 01.11 8.99l2.362-3.44c.076-2.09 1.334-4.03 3.25-4.984a.625.625 0 11.557 1.118c-1.555.775-2.56 2.37-2.56 4.066a.63.63 0 01-.11.354L1.553 9.097l1.812.871a.625.625 0 01.354.563v1.875h1.843c1.034 0 1.875.841 1.875 1.875v.469h6.407V10c.03-.828 1.22-.828 1.25 0zM16 .625V7.5c0 .345-.28.625-.625.625H8.5a.625.625 0 01-.625-.625V.625C7.875.28 8.155 0 8.5 0h6.875c.345 0 .625.28.625.625zm-1.25.625H9.125v5.625h5.625V1.25zm-1.563 4.688c.346 0 .626-.28.626-.625-.031-.829-1.22-.828-1.25 0 0 .345.28.625.624.625zm-2.5 0c.346 0 .626-.28.626-.625-.031-.829-1.22-.828-1.25 0 0 .345.28.625.624.625zm2.5-2.5c.346 0 .626-.28.626-.626-.031-.828-1.22-.827-1.25 0 0 .346.28.626.624.626zm-2.5 0c.346 0 .626-.28.626-.626-.031-.828-1.22-.827-1.25 0 0 .346.28.626.624.626z" fill="#819CDB"/></svg>