<svg width="17" height="16" viewBox="0 0 17 16" fill="none" xmlns="http://www.w3.org/2000/svg"><g clip-path="url(#clip0_1824_12836)" stroke="#819CDB" stroke-miterlimit="10"><path d="M8.024.469a7.531 7.531 0 100 15.062 7.531 7.531 0 000-15.062z"/><path d="M10.082 11.142l.972-3.679-1.47.9-1.541-2.78L6.5 8.364l-1.47-.9.972 3.68h4.08z"/><path d="M4.655 6.62a.302.302 0 11-.604 0 .302.302 0 01.604 0z" fill="#819CDB" fill-opacity=".859"/><path d="M8.374 4.691a.328.328 0 11-.655 0 .328.328 0 01.655 0zm3.648 1.903a.327.327 0 11-.655 0 .327.327 0 01.655 0z" fill="#819CDB"/></g><defs><clipPath id="clip0_1824_12836"><path fill="#fff" transform="translate(.023)" d="M0 0h16v16H0z"/></clipPath></defs></svg>