<svg width="18" height="18" viewBox="0 0 18 18" fill="none" xmlns="http://www.w3.org/2000/svg"><path fill-rule="evenodd" clip-rule="evenodd" d="M15.89 3.867c1.164 0 2.11.946 2.11 2.11 0 1.068-.8 1.953-1.831 2.09l-.622 3.482-.535 2.998v1.344A2.112 2.112 0 0112.902 18H5.098a2.112 2.112 0 01-2.11-2.11v-1.343l-.535-2.998-.622-3.482A2.112 2.112 0 010 5.977c0-1.164.946-2.11 2.11-2.11A2.112 2.112 0 014.17 6.43a2.105 2.105 0 01-.452.91l.323.13a2.08 2.08 0 002.56-.857l1.556-2.57A2.12 2.12 0 016.89 2.11C6.89.946 7.837 0 9 0a2.112 2.112 0 011.884 3.056c-.22.438-.59.789-1.04.986l1.555 2.57a2.08 2.08 0 002.56.856l.323-.129a2.106 2.106 0 011.609-3.472zM3.838 11.302l.443 2.48h9.44l.443-2.48.011-.066.45-2.519-.142.057a3.49 3.49 0 01-3.625-.639 3.494 3.494 0 01-.66-.795L9 5.365 7.804 7.34a3.492 3.492 0 01-4.286 1.434l-.142-.057.45 2.518.011.067zM2.11 5.273a.704.704 0 10.002 1.408.704.704 0 00-.002-1.408zm2.286 10.618c0 .387.315.703.703.703h7.804a.704.704 0 00.704-.703v-.704H4.394v.704zM9.703 2.109a.704.704 0 10-1.408.002.704.704 0 001.408-.002zm5.485 3.868a.704.704 0 101.407-.002.704.704 0 00-1.407.002z" fill="url(#paint0_linear_3461_21709)"/><defs><linearGradient id="paint0_linear_3461_21709" x1="0" y1="8.438" x2="18.002" y2="8.5" gradientUnits="userSpaceOnUse"><stop stop-color="#FFDA55"/><stop offset="1" stop-color="#FEA623"/></linearGradient></defs></svg>