<svg width="16" height="16" viewBox="0 0 16 16" fill="none" xmlns="http://www.w3.org/2000/svg"><path d="M13.602 11.22a1.752 1.752 0 00-.288 0L9.731 4.049A2.387 2.387 0 008.004 0a2.406 2.406 0 00-2.208 1.455 2.382 2.382 0 00.48 2.594l-3.582 7.17a1.752 1.752 0 00-.288 0A2.407 2.407 0 00.27 12.508a2.383 2.383 0 001.172 3.295 2.408 2.408 0 002.472-.34c.341-.277.6-.642.746-1.056h6.542c.045.004.09.004.136 0a2.39 2.39 0 001.932 1.571 2.409 2.409 0 002.288-.987 2.385 2.385 0 00-.71-3.422 2.406 2.406 0 00-1.247-.348zM2.406 14.406a.802.802 0 01-.739-.491.794.794 0 01.583-1.087.802.802 0 01.956.782.795.795 0 01-.8.796zM8.004 1.66a.802.802 0 01.739.492.794.794 0 01-.583 1.086.803.803 0 01-.82-.339.795.795 0 01.664-1.24zm3.335 11.154a.792.792 0 00-.136 0H4.66a2.5 2.5 0 00-.528-.86l3.583-7.171c.094.03.19.05.288.064.096.008.192.008.288 0l3.583 7.17c-.227.23-.41.5-.536.797zm2.263 1.593a.802.802 0 01-.739-.491.795.795 0 01.583-1.087.802.802 0 01.956.782.796.796 0 01-.8.796z" fill="url(#paint0_linear_5272_5999)"/><defs><linearGradient id="paint0_linear_5272_5999" x1="0" y1="7.5" x2="16.002" y2="7.556" gradientUnits="userSpaceOnUse"><stop stop-color="#FF784E"/><stop offset="1" stop-color="#D88C1A"/></linearGradient></defs></svg>