<svg width="17" height="17" viewBox="0 0 17 17" fill="none" xmlns="http://www.w3.org/2000/svg"><path d="M15.786 14.781l-2.032-2.032c.672-.799 1.16-1.683 1.231-2.42a.71.71 0 10-1.414-.139 1.39 1.39 0 01-.067.3l-1.99-1.99 4.271-4.27a.712.712 0 00.172-.278L16.962.938a.71.71 0 00-.898-.9l-3.015 1.006a.71.71 0 00-.278.171L8.5 5.486l-4.27-4.27a.71.71 0 00-.278-.172L.937.039a.71.71 0 00-.9.898l1.006 3.015a.71.71 0 00.172.278l4.27 4.27-1.997 2a1.193 1.193 0 01-.057-.283.71.71 0 00-1.418.086c.032.532.297 1.146.701 1.753l.012.02.047.067a7.132 7.132 0 00.158.22l.021.028c.093.122.19.243.291.362l-2.028 2.03A.71.71 0 00.21 15.785l.497.498.005.005.005.005.497.497a.71.71 0 001.005-1.005l2.032-2.032c.8.673 1.684 1.16 2.421 1.232a.71.71 0 00.139-1.414 1.392 1.392 0 01-.3-.067l1.989-1.99 1.998 1.998c-.1.032-.195.051-.282.057a.71.71 0 00.086 1.418c.532-.032 1.149-.298 1.757-.704l.014-.01c.018-.011.035-.024.053-.036a5.72 5.72 0 00.053-.037l.057-.04a7.919 7.919 0 00.516-.404l2.029 2.03a.71.71 0 101.005 1.004l.498-.498.004-.004.004-.005.498-.498a.71.71 0 00-1.004-1.005zM13.657 2.34l1.507-.502-.502 1.506-4.152 4.153L9.505 6.49l4.152-4.152zM1.836 1.836l1.507.503L7.99 6.987l.006.007 2.01 2.01h.001l2.736 2.735a7.097 7.097 0 01-1.001 1.01l-2.739-2.74-.002-.001-2.01-2.01-4.654-4.654-.502-1.508zM5.26 12.744a7.09 7.09 0 01-1.009-1L6.49 9.506l1.005 1.005-2.234 2.233z" fill="url(#paint0_linear_3376_3671)"/><defs><linearGradient id="paint0_linear_3376_3671" x1="15.309" y1="2.089" x2="-.938" y2="15.896" gradientUnits="userSpaceOnUse"><stop stop-color="#359EFF"/><stop offset=".49" stop-color="#48A9FF"/><stop offset="1" stop-color="#70D2FF"/></linearGradient></defs></svg>