<svg width="16" height="20" viewBox="0 0 16 20" fill="none" xmlns="http://www.w3.org/2000/svg"><path d="M7.953 20C3.462 20 0 16.729 0 12.458c0-1.545.28-2.727.842-3.635.562-.818.842-1.182 1.31-1.636.187-.09.28-.273.468-.454l.28-.364c.468-.454.562-.545 1.03-1.363.468-.818.842-2.726.842-4.09 0-.363.187-.635.561-.817.281-.182.655-.09.936.09l.468.364c1.03.727 2.339 1.818 3.368 3.363.655 1 1.31 2.362 1.684 3.453a4.66 4.66 0 00.468-1.363c.094-.364.375-.727.749-.818.374-.091.842.09 1.03.454.654 1.09.748 1.272 1.309 2.908.561 1.727.655 2.817.655 3.817C15.906 16.547 12.35 20 7.953 20zM6.456 2.734c-.187 1.182-.468 2.363-.936 3.18-.56.91-.748 1.182-1.216 1.727l-.28.273c-.188.182-.375.364-.468.545-.375.455-.655.727-1.123 1.363-.375.637-.562 1.545-.562 2.727 0 3.18 2.714 5.724 6.082 5.724 3.369 0 6.082-2.635 6.082-5.906 0-.909 0-1.727-.561-3.18-.094-.273-.187-.455-.187-.637-.468.727-1.03 1.181-1.31 1.363-.281.182-.655.273-1.03.091-.28-.182-.561-.454-.561-.818 0-.272-.749-2.726-1.778-4.27a9.76 9.76 0 00-2.152-2.182z" fill="#819CDB"/></svg>