<svg width="22" height="9" viewBox="0 0 22 9" fill="none" xmlns="http://www.w3.org/2000/svg"><path d="M11.743 1.82a.8.8 0 00.586-.263.935.935 0 00.242-.634.935.935 0 00-.242-.634.798.798 0 00-.586-.262H8.428c-.22 0-.43.094-.586.262A.935.935 0 007.6.923v7.172a.94.94 0 00.242.634.798.798 0 00.586.262h3.315c.22 0 .43-.094.586-.262a.935.935 0 00.242-.634.935.935 0 00-.242-.634.798.798 0 00-.586-.263H9.257V5.405h1.657c.22 0 .43-.094.586-.262a.935.935 0 00.243-.634.935.935 0 00-.243-.634.798.798 0 00-.586-.263H9.257V1.82h2.486zM4.972 8.991a.767.767 0 00.232 0 .833.833 0 00.441-.337.949.949 0 00.156-.56V.925A.935.935 0 005.558.29a.798.798 0 00-.586-.262c-.22 0-.43.094-.586.262a.935.935 0 00-.242.634v4.043L1.534.484a.86.86 0 00-.395-.405.771.771 0 00-.542-.052.833.833 0 00-.44.337.949.949 0 00-.156.56v7.17a.94.94 0 00.242.635.798.798 0 00.586.262c.22 0 .43-.094.586-.262a.935.935 0 00.243-.634V4.052l2.61 4.482c.07.136.173.25.296.33a.78.78 0 00.408.127zm16.3-8.986a.785.785 0 00-.606.192.918.918 0 00-.306.597l-.43 4.25-.912-1.874a.873.873 0 00-.305-.356.782.782 0 00-.864 0 .873.873 0 00-.306.356l-.911 1.873-.423-4.24a.956.956 0 00-.098-.335.888.888 0 00-.209-.27.814.814 0 00-.289-.162.773.773 0 00-.634.075.853.853 0 00-.249.227.972.972 0 00-.178.663l.72 7.171c.02.19.097.37.218.51.12.14.28.235.454.27a.773.773 0 00.514-.075.863.863 0 00.373-.391l1.441-2.967 1.442 2.967c.07.146.176.268.306.354.13.085.28.13.432.13h.149a.814.814 0 00.454-.27.93.93 0 00.217-.51l.72-7.172a.968.968 0 00-.163-.67.853.853 0 00-.247-.232.787.787 0 00-.31-.11z" fill="#819CDB"/></svg>