<svg width="20" height="22" viewBox="0 0 20 22" fill="none" xmlns="http://www.w3.org/2000/svg"><path d="M5.984 12.535a.32.32 0 01.092.285l-.247 1.453a1.888 1.888 0 00.748 1.852c.33.241.714.364 1.103.364.298 0 .598-.073.876-.22l1.295-.686a.318.318 0 01.297 0l1.295.686c.64.34 1.398.283 1.98-.144.583-.426.87-1.136.748-1.852l-.248-1.453a.325.325 0 01.092-.285l1.048-1.03a1.89 1.89 0 00.476-1.94 1.87 1.87 0 00-1.518-1.289l-1.448-.212a.32.32 0 01-.24-.176l-.649-1.322A1.866 1.866 0 0010 5.51c-.72 0-1.367.404-1.685 1.055l-.648 1.322a.321.321 0 01-.241.176l-1.448.212a1.87 1.87 0 00-1.517 1.289 1.89 1.89 0 00.475 1.94l1.048 1.03zm-.04-2.485a.31.31 0 01.258-.219l1.447-.212a1.877 1.877 0 001.416-1.036l.648-1.322A.306.306 0 0110 7.082c.073 0 .21.023.286.179l.648 1.322c.274.56.803.947 1.415 1.036l1.448.212a.31.31 0 01.259.22.311.311 0 01-.082.33l-1.048 1.029a1.904 1.904 0 00-.54 1.676l.248 1.452a.312.312 0 01-.128.316.308.308 0 01-.336.024l-1.296-.687a1.875 1.875 0 00-1.749 0v.001l-1.295.686a.307.307 0 01-.337-.024.312.312 0 01-.127-.316l.247-1.452a1.904 1.904 0 00-.54-1.676l-1.048-1.03a.311.311 0 01-.081-.33z" fill="#819CDB"/><path d="M0 14.458c0 1.455.777 2.81 2.028 3.538l5.944 3.458a4.033 4.033 0 004.055 0l5.945-3.458A4.102 4.102 0 0020 14.458V7.542a4.102 4.102 0 00-2.028-3.539L12.028.545a4.042 4.042 0 00-4.056 0L2.028 4.003A4.102 4.102 0 000 7.542v6.916zm1.56-6.916c0-.896.478-1.73 1.248-2.177l5.944-3.458a2.479 2.479 0 012.496 0l5.944 3.458a2.523 2.523 0 011.248 2.177v6.916c0 .895-.478 1.73-1.248 2.177l-5.944 3.458a2.484 2.484 0 01-2.496 0l-5.944-3.458a2.524 2.524 0 01-1.248-2.177V7.542z" fill="#819CDB"/></svg>