<svg width="20" height="20" viewBox="0 0 20 20" fill="none" xmlns="http://www.w3.org/2000/svg"><g clip-path="url(#clip0_3262_15484)" fill="#819CDB"><path d="M20 9.999c0-5.602-4.387-10-10-10-5.602 0-10 4.387-10 10 0 5.57 4.355 10 10 10 5.602 0 10-4.388 10-10zm-18.403.78h1.415a6.998 6.998 0 001.497 3.606L3.48 15.413a8.392 8.392 0 01-1.884-4.633zm1.884-6.195l1.028 1.028a6.998 6.998 0 00-1.497 3.605H1.597a8.392 8.392 0 011.884-4.633zm14.922 4.633h-1.415a6.999 6.999 0 00-1.497-3.605l1.028-1.028a8.392 8.392 0 011.884 4.633zM10 15.467A5.475 5.475 0 014.531 10 5.475 5.475 0 0110 4.529 5.475 5.475 0 0115.469 10 5.475 5.475 0 0110 15.467zm4.386-10.96a6.998 6.998 0 00-3.605-1.496V1.596a8.392 8.392 0 014.633 1.884l-1.028 1.028zM9.22 3.012a6.998 6.998 0 00-3.605 1.497L4.586 3.48a8.392 8.392 0 014.633-1.884V3.01zM5.614 15.49a6.999 6.999 0 003.605 1.496v1.415a8.392 8.392 0 01-4.633-1.883l1.028-1.028zm5.167 1.496a6.998 6.998 0 003.605-1.496l1.028 1.028a8.392 8.392 0 01-4.633 1.883v-1.415zm4.71-2.601a6.999 6.999 0 001.497-3.605h1.415a8.392 8.392 0 01-1.884 4.633l-1.028-1.028z"/><path d="M11.658 7.237l-1.657 1.657-1.657-1.657A.781.781 0 107.239 8.34L8.896 10l-1.657 1.657a.781.781 0 001.105 1.105L10 11.104l1.657 1.657a.781.781 0 001.105-1.105l-1.657-1.657 1.657-1.658a.781.781 0 10-1.105-1.104z"/></g><defs><clipPath id="clip0_3262_15484"><path fill="#fff" transform="translate(0 -.001)" d="M0 0h20v20H0z"/></clipPath></defs></svg>