<svg width="13" height="16" viewBox="0 0 13 16" fill="none" xmlns="http://www.w3.org/2000/svg"><path d="M4.89 9.953a8.129 8.129 0 001.434.982c.17.087.368.087.537 0 5.35-2.884 2.323-7.387-.268-5.375C4.16 3.716 1.679 7.34 4.89 9.953zm.387-3.64c.487 0 .76.445.788.492a.586.586 0 001.055 0c1.056-1.522 3.006.736-.527 2.86-.743-.446-2.027-1.431-2.027-2.467 0-.037.009-.886.711-.886zM3.02 3.688c-1.58-.86-.546-2.035 0-1.24.548-.796 1.58.38 0 1.24zm6.14 9.108c.02-.581.623-.614.842-.223.548-.796 1.58.38 0 1.24 0 0-.842-.431-.842-1.017zM12.395 16c-.334 0-.605-.226-.605-.571V1.25H1.21v13.5h11.185c.802.03.801 1.22 0 1.25H.605A.615.615 0 010 15.375V.625C0 .28.27 0 .605 0h11.79c.334 0 .605.28.605.625v14.804c0 .345-.27.571-.605.571z" fill="#819CDB"/></svg>