<svg width="16" height="17" viewBox="0 0 16 17" fill="none" xmlns="http://www.w3.org/2000/svg"><mask id="mask0_1824_12724" style="mask-type:luminance" maskUnits="userSpaceOnUse" x="0" y="0" width="16" height="17"><path d="M0 .5h16v16H0V.5z" fill="#fff"/></mask><g mask="url(#mask0_1824_12724)" stroke="#819CDB" stroke-miterlimit="10" stroke-linecap="round" stroke-linejoin="round"><path d="M8.813 5.444l-4.07-4.07A1.384 1.384 0 002.62 3.131l3.44 5.057m2.254 2.257l5.047 3.441c.55.375 1.288.306 1.758-.165l.008-.007c.54-.54.54-1.416 0-1.957l-4.06-4.059m-7.712 6.686l1.431 1.43a.74.74 0 001.047 0l.003-.003a.74.74 0 00.199-.689l-.536-2.344m-1.777-1.775l-2.348-.534a.74.74 0 00-.688 1.245l1.432 1.432"/><path d="M3.357 14.384c-1.02.747-1.995-.216-1.238-1.237l2.405-3.2c.443-.59.929-1.149 1.452-1.67l4.31-4.303c.02-.019 1.211-1.157 2.3-.068 1.09 1.09-.026 2.302-.047 2.324l-4.263 4.254a15.61 15.61 0 01-1.62 1.408l-3.3 2.492zM9.662 4.6l2.212 2.212"/><path d="M6.514 9.974a1.58 1.58 0 010-2.235l.748-.748a1.58 1.58 0 012.235 2.235l-.748.748a1.58 1.58 0 01-2.235 0zm6.078-6.061l1.297-1.297m-1.432-1.432l2.864 2.865"/></g></svg>